<svg width="40" height="41" viewBox="0 0 40 41" fill="none" xmlns="http://www.w3.org/2000/svg">
<circle cx="20" cy="20" r="20" fill="#FFD080"/>
<circle cx="20" cy="20" r="20" fill="url(#paint0_radial_7623_11908)"/>
<mask id="mask0_7623_11908" style="mask-type:alpha" maskUnits="userSpaceOnUse" x="0" y="0" width="40" height="40">
<circle cx="20" cy="20" r="20" fill="#C4C4C4"/>
</mask>
<g mask="url(#mask0_7623_11908)">
<path d="M30.2568 31.1895L24.7676 29.5751H15.233L9.74386 31.1895C8.41395 31.5808 7.50073 32.8012 7.50073 34.1875V38.7501C7.50073 39.613 8.20028 40.3126 9.06317 40.3126H30.9375C31.8004 40.3126 32.4999 39.613 32.4999 38.7501V34.1875C32.4999 32.8012 31.5866 31.5807 30.2568 31.1895Z" fill="url(#paint1_linear_7623_11908)"/>
<path d="M22.6045 40.3127H17.3964L16.3547 29.8964H23.6461L22.6045 40.3127Z" fill="url(#paint2_linear_7623_11908)"/>
<path d="M16.3547 29.8964L16.5106 31.4554C17.3689 32.4143 18.6123 33.0213 20.0005 33.0213C21.3887 33.0213 22.632 32.4143 23.4903 31.4554L23.6462 29.8964H16.3547Z" fill="url(#paint3_linear_7623_11908)"/>
<path d="M20.0002 31.9789C17.9867 31.9789 16.3545 30.3467 16.3545 28.3332V24.6875H23.6459V28.3332C23.6459 30.3467 22.0137 31.9789 20.0002 31.9789Z" fill="url(#paint4_linear_7623_11908)"/>
<path d="M16.3547 26.8911C17.449 27.4755 18.6897 27.8124 20.0004 27.8124C21.3112 27.8124 22.5519 27.4755 23.6461 26.8911V24.6875H16.3547V26.8911Z" fill="url(#paint5_linear_7623_11908)"/>
<path d="M27.0313 17.9175H26.7709V12.7094H13.2297V17.9175H12.9693C12.2531 17.9175 11.6672 18.5034 11.6672 19.2196C11.6672 19.9357 12.2531 20.5216 12.9693 20.5216H13.256C13.5227 24.0167 16.4368 26.7714 20.0003 26.7714C23.5638 26.7714 26.4778 24.0167 26.7446 20.5216H27.0313C27.7474 20.5216 28.3333 19.9357 28.3333 19.2196C28.3333 18.5034 27.7474 17.9175 27.0313 17.9175Z" fill="url(#paint6_linear_7623_11908)"/>
<path d="M16.8755 19.5252C16.5876 19.5252 16.3547 19.292 16.3547 19.0044V18.4836C16.3547 18.196 16.5877 17.9628 16.8755 17.9628C17.1634 17.9628 17.3964 18.196 17.3964 18.4836V19.0044C17.3964 19.2921 17.1634 19.5252 16.8755 19.5252Z" fill="url(#paint7_radial_7623_11908)"/>
<path d="M23.1253 19.5251C22.8374 19.5251 22.6045 19.2919 22.6045 19.0043V18.4835C22.6045 18.1959 22.8375 17.9627 23.1253 17.9627C23.4132 17.9627 23.6461 18.1959 23.6461 18.4835V19.0043C23.6461 19.292 23.4132 19.5251 23.1253 19.5251Z" fill="url(#paint8_radial_7623_11908)"/>
<path d="M17.3964 17.3957H16.3548C16.0669 17.3957 15.834 17.1625 15.834 16.8749C15.834 16.5873 16.067 16.3541 16.3548 16.3541H17.3964C17.6843 16.3541 17.9172 16.5873 17.9172 16.8749C17.9172 17.1625 17.6843 17.3957 17.3964 17.3957Z" fill="url(#paint9_linear_7623_11908)"/>
<path d="M23.6462 17.3958H22.6046C22.3166 17.3958 22.0837 17.1626 22.0837 16.875C22.0837 16.5874 22.3167 16.3542 22.6046 16.3542H23.6462C23.9341 16.3542 24.167 16.5874 24.167 16.875C24.167 17.1626 23.9341 17.3958 23.6462 17.3958Z" fill="url(#paint10_linear_7623_11908)"/>
<path d="M13.2297 12.7094V17.9175H13.015C12.422 17.9175 11.8682 18.2933 11.7145 18.8661C11.4823 19.7322 12.138 20.5217 12.9693 20.5217H13.256C13.5227 24.0168 16.4368 26.7715 20.0003 26.7715C20.3566 26.7715 20.7039 26.7368 21.0452 26.6837C17.8001 26.1829 15.3129 23.3862 15.3129 20.0009V16.8359C15.3129 15.6132 16.3456 14.6179 17.5642 14.7183C17.9052 14.7464 18.2634 14.7614 18.6397 14.7614C20.1499 14.7614 21.8362 14.5204 23.6518 14.045C24.445 13.8373 25.1274 13.3539 25.5935 12.7094H13.2297Z" fill="url(#paint11_linear_7623_11908)"/>
<path d="M15.7689 10.625L15.834 12.7083C15.834 12.7083 14.2715 14.2707 14.2715 16.354V16.9969C14.2715 17.5222 13.8804 17.9653 13.3591 18.0305L12.1882 18.1769V13.75C12.1883 12.0241 13.8158 10.5383 15.7689 10.625Z" fill="url(#paint12_linear_7623_11908)"/>
<path d="M26.2403 32.4898L25.2087 31.4582L26.3127 29.9863C26.5514 29.6679 26.4436 29.2112 26.0877 29.0332L23.6462 27.8125L20.0005 40.3121H23.1254L26.4353 33.6922C26.6358 33.2911 26.5572 32.8068 26.2403 32.4898Z" fill="url(#paint13_linear_7623_11908)"/>
<path d="M24.2318 9.06255L24.1667 12.7082C24.1667 12.7082 25.7292 14.2707 25.7292 16.3539V16.9968C25.7292 17.5221 26.1203 17.9652 26.6416 18.0304L27.8125 18.1768V12.1875C27.8125 10.4616 26.185 8.97577 24.2318 9.06255Z" fill="url(#paint14_linear_7623_11908)"/>
<path d="M20.0003 23.1252C19.2186 23.1252 18.4978 22.8744 18.0721 22.4543C17.8672 22.2519 17.8651 21.9224 18.067 21.7179C18.27 21.5129 18.5996 21.5109 18.8035 21.7128C18.9769 21.8837 19.394 22.0836 20.0002 22.0836C20.6065 22.0836 21.0236 21.8837 21.197 21.7128C21.401 21.5108 21.7306 21.5129 21.9334 21.7179C22.1354 21.9224 22.1333 22.252 21.9283 22.4543C21.5028 22.8744 20.782 23.1252 20.0003 23.1252Z" fill="#DEA672"/>
<path d="M13.7607 32.4898L14.7923 31.4582L13.6883 29.9863C13.4496 29.6679 13.5574 29.2112 13.9132 29.0332L16.3547 27.8125L20.0004 40.3121H16.8755L13.5656 33.6922C13.3651 33.2911 13.4436 32.8068 13.7607 32.4898Z" fill="url(#paint15_linear_7623_11908)"/>
<path d="M21.0095 8.0221C16.6643 8.0221 15.8316 9.34305 12.4856 10.4088C12.2557 10.482 12.1522 10.7483 12.2822 10.9516C13.0082 12.0873 15.7106 15.0476 23.3881 13.0374C24.2872 12.8021 24.9785 12.0772 25.1608 11.1658C25.3719 10.11 24.7303 9.06436 23.7655 8.5863C22.9992 8.20664 21.9943 8.0221 21.0095 8.0221Z" fill="url(#paint16_linear_7623_11908)"/>
</g>
<defs>
<radialGradient id="paint0_radial_7623_11908" cx="0" cy="0" r="1" gradientUnits="userSpaceOnUse" gradientTransform="translate(6.53333 4.53333) rotate(53.9454) scale(41.2308)">
<stop offset="0.356879" stop-color="#FFD080"/>
<stop offset="1" stop-color="#FFBB80"/>
</radialGradient>
<linearGradient id="paint1_linear_7623_11908" x1="20.0003" y1="29.5751" x2="20.0003" y2="40.3126" gradientUnits="userSpaceOnUse">
<stop stop-color="#6B2BF2"/>
<stop offset="1" stop-color="#BB9BFF"/>
</linearGradient>
<linearGradient id="paint2_linear_7623_11908" x1="20" y1="31.6672" x2="20.0004" y2="40.3127" gradientUnits="userSpaceOnUse">
<stop stop-color="#8CD3FF"/>
<stop offset="1" stop-color="#CFECFF"/>
</linearGradient>
<linearGradient id="paint3_linear_7623_11908" x1="17.9167" y1="31.6672" x2="21.25" y2="33.3339" gradientUnits="userSpaceOnUse">
<stop stop-color="#73B6E6"/>
<stop offset="1" stop-color="#92CCF5"/>
</linearGradient>
<linearGradient id="paint4_linear_7623_11908" x1="17.9948" y1="26.0916" x2="22.9284" y2="30.4353" gradientUnits="userSpaceOnUse">
<stop stop-color="#E6AC82"/>
<stop offset="1" stop-color="#F2CBAF"/>
</linearGradient>
<linearGradient id="paint5_linear_7623_11908" x1="16.6667" y1="26.25" x2="21.2968" y2="30.3027" gradientUnits="userSpaceOnUse">
<stop stop-color="#E6A470"/>
<stop offset="1" stop-color="#E6A370" stop-opacity="0"/>
</linearGradient>
<linearGradient id="paint6_linear_7623_11908" x1="15.4166" y1="15.4173" x2="24.9999" y2="25.4173" gradientUnits="userSpaceOnUse">
<stop stop-color="#F3B68A"/>
<stop offset="1" stop-color="#FED5B8"/>
</linearGradient>
<radialGradient id="paint7_radial_7623_11908" cx="0" cy="0" r="1" gradientUnits="userSpaceOnUse" gradientTransform="translate(16.6681 18.4301) rotate(71.565) scale(1.31748 0.878321)">
<stop stop-color="#040404"/>
<stop offset="1" stop-color="#767676"/>
</radialGradient>
<radialGradient id="paint8_radial_7623_11908" cx="0" cy="0" r="1" gradientUnits="userSpaceOnUse" gradientTransform="translate(22.9179 18.43) rotate(71.5651) scale(1.31748 0.87832)">
<stop stop-color="#040404"/>
<stop offset="1" stop-color="#767676"/>
</radialGradient>
<linearGradient id="paint9_linear_7623_11908" x1="16.2501" y1="16.2495" x2="16.8756" y2="17.3957" gradientUnits="userSpaceOnUse">
<stop stop-color="#70482B"/>
<stop offset="1" stop-color="#70482B" stop-opacity="0.49"/>
</linearGradient>
<linearGradient id="paint10_linear_7623_11908" x1="22.4998" y1="16.2496" x2="23.1254" y2="17.3958" gradientUnits="userSpaceOnUse">
<stop stop-color="#70482B"/>
<stop offset="1" stop-color="#70482B" stop-opacity="0.49"/>
</linearGradient>
<linearGradient id="paint11_linear_7623_11908" x1="13.7499" y1="12.9173" x2="18.6304" y2="26.7715" gradientUnits="userSpaceOnUse">
<stop stop-color="#EBA873"/>
<stop offset="1" stop-color="#EBA773" stop-opacity="0"/>
</linearGradient>
<linearGradient id="paint12_linear_7623_11908" x1="12.5001" y1="17.9161" x2="17.2661" y2="15.8578" gradientUnits="userSpaceOnUse">
<stop stop-color="#99633C"/>
<stop offset="1" stop-color="#412A18"/>
</linearGradient>
<linearGradient id="paint13_linear_7623_11908" x1="23.2729" y1="27.8125" x2="23.2729" y2="40.3121" gradientUnits="userSpaceOnUse">
<stop stop-color="#864DFF"/>
<stop offset="1" stop-color="#D3BFFF"/>
</linearGradient>
<linearGradient id="paint14_linear_7623_11908" x1="27.9165" y1="18.3328" x2="30.7717" y2="12.7268" gradientUnits="userSpaceOnUse">
<stop stop-color="#99633C"/>
<stop offset="1" stop-color="#412A18"/>
</linearGradient>
<linearGradient id="paint15_linear_7623_11908" x1="16.728" y1="27.8125" x2="16.728" y2="40.3121" gradientUnits="userSpaceOnUse">
<stop stop-color="#864DFF"/>
<stop offset="1" stop-color="#D3BFFF"/>
</linearGradient>
<linearGradient id="paint16_linear_7623_11908" x1="12.9167" y1="11.2507" x2="24.5834" y2="9.16733" gradientUnits="userSpaceOnUse">
<stop stop-color="#8A5936"/>
<stop offset="1" stop-color="#412A18"/>
</linearGradient>
</defs>
</svg>
